<svg xmlns="http://www.w3.org/2000/svg" viewBox="0 0 29.042 24"><path d="M25.021 0h-21c-.827 0-1.5.673-1.5 1.5v21c0 .827.673 1.5 1.5 1.5h21c.828 0 1.5-.673 1.5-1.5v-21c0-.827-.672-1.5-1.5-1.5zm.5 22.5c0 .275-.225.5-.5.5h-21a.5.5 0 0 1-.5-.5v-21a.5.5 0 0 1 .5-.5h21a.5.5 0 0 1 .5.5v21z"/><path d="M10.021 9h-4a.5.5 0 0 0-.5.5v11a.5.5 0 0 0 .5.5h4a.5.5 0 0 0 .5-.5v-11a.5.5 0 0 0-.5-.5zm-.5 11h-3V10h3v10zM8.021 2.5c-1.378 0-2.5 1.122-2.5 2.5s1.122 2.5 2.5 2.5 2.5-1.122 2.5-2.5-1.121-2.5-2.5-2.5zm0 4c-.827 0-1.5-.673-1.5-1.5s.673-1.5 1.5-1.5 1.5.673 1.5 1.5-.672 1.5-1.5 1.5zM19.021 8.999c-1.643 0-2.799.362-3.5.681V9.5a.5.5 0 0 0-.5-.5h-3a.5.5 0 0 0-.5.5v11a.5.5 0 0 0 .5.5h3a.5.5 0 0 0 .5-.5v-6a1.501 1.501 0 0 1 3 0v6a.5.5 0 0 0 .5.5h4a.5.5 0 0 0 .5-.5v-7a4.506 4.506 0 0 0-4.5-4.501zM22.521 20h-3v-5.5c0-1.379-1.121-2.5-2.5-2.5s-2.5 1.121-2.5 2.5V20h-2V10h2v.541c0 .192.111.366.284.449s.379.059.53-.06c.012-.009 1.199-.931 3.686-.931 1.93 0 3.5 1.57 3.5 3.501V20z"/></svg>