<?xml version="1.0" standalone="no"?>
<!DOCTYPE svg PUBLIC "-//W3C//DTD SVG 20010904//EN"
 "http://www.w3.org/TR/2001/REC-SVG-20010904/DTD/svg10.dtd">
<svg version="1.0" xmlns="http://www.w3.org/2000/svg"
 width="790.000000pt" height="649.000000pt" viewBox="0 0 790.000000 649.000000"
 preserveAspectRatio="xMidYMid meet">

<g transform="translate(0.000000,649.000000) scale(0.100000,-0.100000)"
fill="#000000" stroke="none">
<path d="M3860 6415 c0 -12 -13 -15 -55 -15 -42 0 -55 -3 -55 -15 0 -10 -10
-15 -30 -15 -16 0 -30 -4 -30 -10 0 -5 -11 -10 -25 -10 -16 0 -25 -6 -25 -15
0 -8 -7 -15 -15 -15 -8 0 -15 -7 -15 -15 0 -9 -9 -15 -25 -15 -16 0 -25 -6
-25 -15 0 -8 -7 -15 -15 -15 -9 0 -15 -9 -15 -25 0 -16 -6 -25 -15 -25 -10 0
-15 -10 -15 -30 0 -20 -5 -30 -15 -30 -9 0 -15 -9 -15 -25 0 -14 -4 -25 -10
-25 -6 0 -10 -62 -10 -165 0 -103 4 -165 10 -165 6 0 10 -18 10 -40 0 -29 4
-40 15 -40 10 0 15 -10 15 -30 0 -20 5 -30 15 -30 9 0 15 -9 15 -25 0 -20 5
-25 25 -25 16 0 25 -6 25 -15 0 -8 7 -15 15 -15 8 0 15 -7 15 -15 0 -8 7 -15
15 -15 8 0 15 -7 15 -15 0 -9 9 -15 25 -15 14 0 25 -4 25 -10 0 -5 14 -10 30
-10 l30 0 0 -580 c0 -509 -2 -580 -15 -580 -8 0 -15 -7 -15 -15 0 -8 -7 -15
-15 -15 -9 0 -15 -9 -15 -25 0 -14 -4 -25 -10 -25 -5 0 -10 -7 -10 -15 0 -8
-7 -15 -15 -15 -8 0 -15 -7 -15 -15 0 -8 -7 -15 -15 -15 -8 0 -15 -4 -15 -10
0 -5 -7 -10 -15 -10 -8 0 -15 -7 -15 -15 0 -8 -4 -15 -10 -15 -5 0 -10 -7 -10
-15 0 -8 -7 -15 -15 -15 -9 0 -15 -9 -15 -25 0 -16 -6 -25 -15 -25 -8 0 -15
-7 -15 -15 0 -8 -7 -15 -15 -15 -9 0 -15 -9 -15 -25 0 -14 -4 -25 -10 -25 -5
0 -10 -7 -10 -15 0 -8 -7 -15 -15 -15 -10 0 -15 -10 -15 -30 0 -20 -5 -30 -15
-30 -8 0 -15 -4 -15 -10 0 -5 -7 -10 -15 -10 -8 0 -15 -7 -15 -15 0 -8 -4 -15
-10 -15 -5 0 -10 -7 -10 -15 0 -8 -7 -15 -15 -15 -8 0 -15 -7 -15 -15 0 -8 -7
-15 -15 -15 -9 0 -15 -9 -15 -25 0 -16 -6 -25 -15 -25 -8 0 -15 -7 -15 -15 0
-8 -4 -15 -10 -15 -5 0 -10 -7 -10 -15 0 -8 -7 -15 -15 -15 -8 0 -15 -4 -15
-10 0 -5 -7 -10 -15 -10 -8 0 -15 -7 -15 -15 0 -8 -4 -15 -10 -15 -5 0 -10
-13 -10 -30 0 -20 -5 -30 -15 -30 -8 0 -15 -4 -15 -10 0 -5 -7 -10 -15 -10 -8
0 -15 -7 -15 -15 0 -8 -7 -15 -15 -15 -9 0 -15 -10 -15 -26 0 -26 -20 -54 -39
-54 -6 0 -11 -7 -11 -15 0 -8 -7 -15 -15 -15 -10 0 -15 -10 -15 -30 0 -16 -5
-30 -11 -30 -14 0 -39 -25 -39 -39 0 -6 -7 -11 -15 -11 -10 0 -15 -10 -15 -30
0 -20 -5 -30 -15 -30 -8 0 -15 -4 -15 -10 0 -5 -7 -10 -15 -10 -8 0 -15 -7
-15 -15 0 -8 -4 -15 -10 -15 -5 0 -10 -13 -10 -30 0 -20 -5 -30 -15 -30 -8 0
-15 -4 -15 -10 0 -5 -7 -10 -15 -10 -8 0 -15 -7 -15 -15 0 -8 -7 -15 -15 -15
-8 0 -15 -7 -15 -15 0 -8 -4 -15 -10 -15 -5 0 -10 -11 -10 -25 0 -16 -6 -25
-15 -25 -8 0 -15 -7 -15 -15 0 -8 -7 -15 -15 -15 -8 0 -15 -7 -15 -15 0 -8 -4
-15 -10 -15 -5 0 -10 -7 -10 -15 0 -8 -7 -15 -15 -15 -9 0 -15 -9 -15 -25 0
-16 -6 -25 -15 -25 -8 0 -15 -7 -15 -15 0 -8 -7 -15 -15 -15 -8 0 -15 -7 -15
-15 0 -8 -4 -15 -10 -15 -5 0 -10 -11 -10 -25 0 -16 -6 -25 -15 -25 -8 0 -15
-7 -15 -15 0 -8 -7 -15 -15 -15 -8 0 -15 -7 -15 -15 0 -8 -5 -15 -11 -15 -14
0 -39 -25 -39 -39 0 -6 -7 -11 -15 -11 -10 0 -15 -10 -15 -30 0 -20 -5 -30
-15 -30 -8 0 -15 -4 -15 -10 0 -5 -7 -10 -15 -10 -10 0 -15 -10 -15 -30 0 -16
-4 -30 -10 -30 -5 0 -10 -7 -10 -15 0 -8 5 -15 10 -15 6 0 10 -11 10 -25 0
-16 6 -25 15 -25 10 0 15 -10 15 -30 0 -20 5 -30 15 -30 8 0 15 -4 15 -10 0
-5 7 -10 15 -10 10 0 15 -10 15 -30 0 -16 5 -30 10 -30 6 0 10 -7 10 -15 0 -8
7 -15 15 -15 9 0 15 -9 15 -25 0 -16 6 -25 15 -25 8 0 15 -7 15 -15 0 -8 7
-15 15 -15 8 0 15 7 15 15 0 8 5 15 10 15 6 0 10 7 10 15 0 8 7 15 15 15 8 0
15 5 15 10 0 6 7 10 15 10 10 0 15 10 15 30 0 20 5 30 15 30 8 0 15 5 15 11 0
14 25 39 39 39 6 0 11 14 11 30 0 20 5 30 15 30 8 0 15 5 15 11 0 14 25 39 39
39 6 0 11 7 11 15 0 8 7 15 15 15 8 0 15 7 15 15 0 8 7 15 15 15 9 0 15 9 15
25 0 14 5 25 10 25 6 0 10 7 10 15 0 8 7 15 15 15 8 0 15 7 15 15 0 8 7 15 15
15 9 0 15 9 15 25 0 16 6 25 15 25 8 0 15 7 15 15 0 8 5 15 10 15 6 0 10 7 10
15 0 8 7 15 15 15 9 0 15 9 15 25 0 16 6 25 15 25 8 0 15 7 15 15 0 8 7 15 15
15 8 0 15 7 15 15 0 8 5 15 10 15 6 0 10 7 10 15 0 8 7 15 15 15 9 0 15 9 15
25 0 16 6 25 15 25 8 0 15 7 15 15 0 8 7 15 15 15 8 0 15 5 15 11 0 14 25 39
39 39 6 0 11 14 11 30 0 20 5 30 15 30 8 0 15 5 15 11 0 14 25 39 39 39 6 0
11 14 11 30 0 20 5 30 15 30 8 0 15 7 15 15 0 8 5 15 11 15 14 0 39 25 39 39
0 6 7 11 15 11 10 0 15 10 15 30 0 20 5 30 15 30 8 0 15 5 15 10 0 6 7 10 15
10 8 0 15 7 15 15 0 8 5 15 10 15 6 0 10 14 10 30 0 20 5 30 15 30 8 0 15 5
15 10 0 6 7 10 15 10 8 0 15 7 15 15 0 8 7 15 15 15 9 0 15 10 15 26 0 26 20
54 39 54 6 0 11 7 11 15 0 8 7 15 15 15 8 0 15 7 15 15 0 8 7 15 15 15 9 0 15
9 15 25 0 14 5 25 10 25 6 0 10 7 10 15 0 8 7 15 15 15 8 0 15 7 15 15 0 8 7
15 15 15 9 0 15 9 15 25 0 16 6 25 15 25 8 0 15 7 15 15 0 8 5 15 10 15 6 0
10 7 10 15 0 8 7 15 15 15 8 0 15 7 15 15 0 8 5 15 11 15 19 0 39 28 39 54 0
16 6 26 15 26 8 0 15 7 15 15 0 8 7 15 15 15 8 0 15 5 15 10 0 6 7 10 15 10 8
0 15 7 15 15 0 8 5 15 10 15 6 0 10 14 10 30 0 20 5 30 15 30 8 0 15 5 15 10
0 6 7 10 15 10 8 0 15 7 15 15 0 8 7 15 15 15 9 0 15 9 15 25 0 14 5 25 10 25
7 0 10 218 10 635 0 558 2 635 15 635 8 0 15 7 15 15 0 8 7 15 15 15 8 0 15 5
15 10 0 6 11 10 25 10 16 0 25 6 25 15 0 8 7 15 15 15 8 0 15 7 15 15 0 10 10
15 30 15 17 0 30 5 30 11 0 14 25 39 39 39 6 0 11 7 11 15 0 8 7 15 15 15 10
0 15 10 15 30 0 17 5 30 10 30 6 0 10 11 10 25 0 16 6 25 15 25 12 0 15 16 15
85 0 69 3 85 15 85 9 0 15 9 15 25 0 16 -6 25 -15 25 -12 0 -15 14 -15 70 0
56 -3 70 -15 70 -9 0 -15 9 -15 25 0 14 -4 25 -10 25 -5 0 -10 14 -10 30 0 20
-5 30 -15 30 -8 0 -15 7 -15 15 0 8 -5 15 -11 15 -14 0 -39 25 -39 39 0 6 -7
11 -15 11 -8 0 -15 7 -15 15 0 8 -7 15 -15 15 -8 0 -15 7 -15 15 0 9 -9 15
-25 15 -14 0 -25 5 -25 10 0 6 -13 10 -30 10 -20 0 -30 5 -30 15 0 11 -11 15
-40 15 -29 0 -40 4 -40 15 0 12 -17 15 -95 15 -78 0 -95 -3 -95 -15z"/>
<path d="M430 5065 c0 -11 -11 -15 -40 -15 -22 0 -40 -4 -40 -10 0 -5 -11 -10
-25 -10 -16 0 -25 -6 -25 -15 0 -10 -10 -15 -30 -15 -20 0 -30 -5 -30 -15 0
-9 -9 -15 -25 -15 -16 0 -25 -6 -25 -15 0 -8 -7 -15 -15 -15 -8 0 -15 -4 -15
-10 0 -5 -7 -10 -15 -10 -10 0 -15 -10 -15 -30 0 -16 -4 -30 -10 -30 -5 0 -10
-7 -10 -15 0 -8 -7 -15 -15 -15 -12 0 -15 -13 -15 -55 0 -42 -3 -55 -15 -55
-13 0 -15 -22 -15 -135 0 -113 2 -135 15 -135 11 0 15 -11 15 -40 0 -29 4 -40
15 -40 10 0 15 -10 15 -30 0 -16 5 -30 10 -30 6 0 10 -7 10 -15 0 -8 7 -15 15
-15 8 0 15 -4 15 -10 0 -5 7 -10 15 -10 8 0 15 -7 15 -15 0 -8 7 -15 15 -15 8
0 15 -7 15 -15 0 -8 5 -15 10 -15 6 0 10 -7 10 -15 0 -10 10 -15 30 -15 17 0
30 -4 30 -10 0 -5 7 -10 15 -10 8 0 15 -7 15 -15 0 -11 11 -15 40 -15 29 0 40
-4 40 -15 0 -12 18 -15 106 -15 115 0 134 -8 134 -54 0 -16 6 -26 15 -26 9 0
15 -9 15 -25 0 -16 6 -25 15 -25 10 0 15 -10 15 -30 0 -20 5 -30 15 -30 9 0
15 -9 15 -25 0 -14 5 -25 10 -25 6 0 10 -7 10 -15 0 -8 7 -15 15 -15 10 0 15
-10 15 -30 0 -20 5 -30 15 -30 11 0 15 -11 15 -40 0 -29 4 -40 15 -40 9 0 15
-9 15 -25 0 -14 5 -25 10 -25 6 0 10 -13 10 -30 0 -20 5 -30 15 -30 9 0 15 -9
15 -25 0 -16 6 -25 15 -25 10 0 15 -10 15 -30 0 -20 5 -30 15 -30 11 0 15 -11
15 -40 0 -22 5 -40 10 -40 6 0 10 -13 10 -30 0 -20 5 -30 15 -30 9 0 15 -9 15
-25 0 -16 6 -25 15 -25 11 0 15 -11 15 -40 0 -22 5 -40 10 -40 6 0 10 -13 10
-30 0 -20 5 -30 15 -30 11 0 15 -11 15 -40 0 -29 4 -40 15 -40 11 0 15 -11 15
-40 0 -29 4 -40 15 -40 10 0 15 -10 15 -30 0 -16 5 -30 10 -30 6 0 10 -18 10
-40 0 -29 4 -40 15 -40 12 0 15 -13 15 -55 0 -42 3 -55 15 -55 12 0 15 -13 15
-55 0 -42 3 -55 15 -55 11 0 15 -11 15 -40 0 -22 5 -40 10 -40 6 0 10 -20 10
-45 0 -33 4 -45 15 -45 12 0 15 -13 15 -55 0 -42 3 -55 15 -55 11 0 15 -11 15
-40 0 -29 4 -40 15 -40 12 0 15 -13 15 -55 0 -30 5 -55 10 -55 6 0 10 -25 10
-55 0 -42 3 -55 15 -55 12 0 15 -13 15 -55 0 -42 3 -55 15 -55 12 0 15 -13 15
-55 0 -42 3 -55 15 -55 12 0 15 -14 15 -70 0 -40 4 -70 10 -70 6 0 10 -22 10
-50 0 -38 4 -50 15 -50 12 0 15 -14 15 -70 0 -56 3 -70 15 -70 12 0 15 -16 15
-85 0 -50 4 -85 10 -85 6 0 10 -38 10 -95 l0 -95 55 0 c42 0 55 3 55 15 0 8 7
15 15 15 9 0 15 9 15 25 0 16 6 25 15 25 8 0 15 7 15 15 0 8 7 15 15 15 9 0
15 10 15 26 0 26 20 54 39 54 6 0 11 14 11 30 0 20 5 30 15 30 8 0 15 7 15 15
0 8 5 15 11 15 19 0 39 28 39 54 0 16 6 26 15 26 8 0 15 7 15 15 0 8 7 15 15
15 8 0 15 5 15 10 0 6 7 10 15 10 10 0 15 10 15 30 0 17 5 30 10 30 6 0 10 7
10 15 0 8 7 15 15 15 8 0 15 5 15 10 0 6 7 10 15 10 8 0 15 7 15 15 0 8 7 15
15 15 8 0 15 7 15 15 0 8 5 15 10 15 6 0 10 11 10 25 0 16 6 25 15 25 8 0 15
7 15 15 0 8 7 15 15 15 8 0 15 7 15 15 0 8 5 15 10 15 6 0 10 11 10 25 0 16 6
25 15 25 8 0 15 7 15 15 0 8 7 15 15 15 8 0 15 7 15 15 0 8 7 15 15 15 9 0 15
9 15 25 0 14 5 25 10 25 6 0 10 7 10 15 0 8 7 15 15 15 9 0 15 9 15 25 0 16 6
25 15 25 8 0 15 7 15 15 0 8 -7 15 -15 15 -8 0 -15 7 -15 15 0 8 -7 15 -15 15
-9 0 -15 9 -15 25 0 14 -4 25 -10 25 -5 0 -10 7 -10 15 0 8 -7 15 -15 15 -10
0 -15 10 -15 30 0 20 -5 30 -15 30 -8 0 -15 5 -15 10 0 6 -7 10 -15 10 -10 0
-15 10 -15 30 0 17 -4 30 -10 30 -5 0 -10 7 -10 15 0 8 -7 15 -15 15 -9 0 -15
9 -15 25 0 16 -6 25 -15 25 -8 0 -15 7 -15 15 0 8 -4 15 -10 15 -5 0 -10 11
-10 25 0 16 -6 25 -15 25 -8 0 -15 7 -15 15 0 8 -7 15 -15 15 -10 0 -15 10
-15 30 0 17 -5 30 -11 30 -19 0 -39 28 -39 54 0 16 -6 26 -15 26 -8 0 -15 7
-15 15 0 8 -7 15 -15 15 -9 0 -15 9 -15 25 0 16 -6 25 -15 25 -8 0 -15 7 -15
15 0 8 -4 15 -10 15 -5 0 -10 11 -10 25 0 16 -6 25 -15 25 -8 0 -15 7 -15 15
0 8 -7 15 -15 15 -10 0 -15 10 -15 30 0 17 -5 30 -11 30 -19 0 -39 28 -39 54
0 16 -6 26 -15 26 -9 0 -15 9 -15 25 0 16 -6 25 -15 25 -8 0 -15 7 -15 15 0 8
-7 15 -15 15 -10 0 -15 10 -15 30 0 17 -4 30 -10 30 -5 0 -10 11 -10 25 0 16
-6 25 -15 25 -8 0 -15 7 -15 15 0 8 -7 15 -15 15 -9 0 -15 9 -15 25 0 16 -6
25 -15 25 -8 0 -15 7 -15 15 0 8 -4 15 -10 15 -5 0 -10 7 -10 15 0 8 -7 15
-15 15 -9 0 -15 9 -15 25 0 16 -6 25 -15 25 -8 0 -15 7 -15 15 0 8 -4 15 -10
15 -5 0 -10 14 -10 30 0 20 -5 30 -15 30 -8 0 -15 5 -15 10 0 6 -7 10 -15 10
-10 0 -15 10 -15 30 0 20 -5 30 -15 30 -8 0 -15 7 -15 15 0 8 -4 15 -10 15 -5
0 -10 11 -10 25 0 16 -6 25 -15 25 -8 0 -15 7 -15 15 0 8 -7 15 -15 15 -9 0
-15 9 -15 25 0 16 -6 25 -15 25 -10 0 -15 10 -15 30 0 17 -4 30 -10 30 -5 0
-10 7 -10 15 0 8 -7 15 -15 15 -9 0 -15 9 -15 25 0 16 -6 25 -15 25 -10 0 -15
10 -15 30 0 17 -5 30 -11 30 -19 0 -39 28 -39 54 0 16 -6 26 -15 26 -8 0 -15
7 -15 15 0 8 -7 15 -15 15 -9 0 -15 9 -15 25 0 16 -6 25 -15 25 -8 0 -15 7
-15 15 0 8 -4 15 -10 15 -5 0 -10 11 -10 25 0 16 -6 25 -15 25 -8 0 -15 7 -15
15 0 8 -7 15 -15 15 -9 0 -15 9 -15 25 0 14 -4 25 -10 25 -5 0 -10 7 -10 15 0
8 -7 15 -15 15 -11 0 -15 11 -15 40 0 29 4 40 15 40 10 0 15 10 15 30 0 17 5
30 10 30 6 0 10 11 10 25 0 16 6 25 15 25 10 0 15 10 15 30 0 20 5 30 15 30
13 0 15 22 15 135 0 113 -2 135 -15 135 -11 0 -15 12 -15 45 0 33 -4 45 -15
45 -9 0 -15 9 -15 25 0 14 -4 25 -10 25 -5 0 -10 7 -10 15 0 8 -7 15 -15 15
-8 0 -15 7 -15 15 0 8 -7 15 -15 15 -8 0 -15 5 -15 10 0 6 -7 10 -15 10 -8 0
-15 7 -15 15 0 9 -9 15 -25 15 -16 0 -25 6 -25 15 0 8 -7 15 -15 15 -8 0 -15
7 -15 15 0 9 -9 15 -25 15 -14 0 -25 5 -25 10 0 6 -20 10 -45 10 -33 0 -45 4
-45 15 0 12 -19 15 -110 15 -91 0 -110 -3 -110 -15z"/>
<path d="M7220 5065 c0 -11 -11 -15 -40 -15 -22 0 -40 -4 -40 -10 0 -5 -11
-10 -25 -10 -16 0 -25 -6 -25 -15 0 -10 -10 -15 -30 -15 -20 0 -30 -5 -30 -15
0 -9 -9 -15 -25 -15 -16 0 -25 -6 -25 -15 0 -8 -7 -15 -15 -15 -8 0 -15 -4
-15 -10 0 -5 -7 -10 -15 -10 -10 0 -15 -10 -15 -30 0 -16 -4 -30 -10 -30 -5 0
-10 -11 -10 -25 0 -16 -6 -25 -15 -25 -12 0 -15 -13 -15 -55 0 -42 -3 -55 -15
-55 -13 0 -15 -21 -15 -125 0 -104 2 -125 15 -125 11 0 15 -11 15 -40 0 -29 4
-40 15 -40 10 0 15 -10 15 -30 0 -16 5 -30 10 -30 6 0 10 -29 10 -66 0 -64
-13 -94 -39 -94 -6 0 -11 -13 -11 -30 0 -20 -5 -30 -15 -30 -8 0 -15 -4 -15
-10 0 -5 -7 -10 -15 -10 -10 0 -15 -10 -15 -30 0 -16 -4 -30 -10 -30 -5 0 -10
-11 -10 -25 0 -16 -6 -25 -15 -25 -8 0 -15 -7 -15 -15 0 -8 -7 -15 -15 -15
-10 0 -15 -10 -15 -30 0 -16 -5 -30 -11 -30 -14 0 -39 -25 -39 -39 0 -6 -7
-11 -15 -11 -10 0 -15 -10 -15 -30 0 -20 -5 -30 -15 -30 -9 0 -15 -9 -15 -25
0 -14 -4 -25 -10 -25 -5 0 -10 -7 -10 -15 0 -8 -7 -15 -15 -15 -9 0 -15 -9
-15 -25 0 -16 -6 -25 -15 -25 -10 0 -15 -10 -15 -30 0 -20 -5 -30 -15 -30 -8
0 -15 -7 -15 -15 0 -8 -4 -15 -10 -15 -5 0 -10 -11 -10 -25 0 -16 -6 -25 -15
-25 -8 0 -15 -7 -15 -15 0 -8 -7 -15 -15 -15 -9 0 -15 -9 -15 -25 0 -16 -6
-25 -15 -25 -8 0 -15 -7 -15 -15 0 -8 -4 -15 -10 -15 -5 0 -10 -13 -10 -30 0
-20 -5 -30 -15 -30 -9 0 -15 -9 -15 -25 0 -16 -6 -25 -15 -25 -10 0 -15 -10
-15 -30 0 -16 -5 -30 -11 -30 -19 0 -39 -28 -39 -54 0 -16 -6 -26 -15 -26 -8
0 -15 -7 -15 -15 0 -8 -7 -15 -15 -15 -9 0 -15 -9 -15 -25 0 -16 -6 -25 -15
-25 -8 0 -15 -7 -15 -15 0 -8 -4 -15 -10 -15 -5 0 -10 -11 -10 -25 0 -16 -6
-25 -15 -25 -10 0 -15 -10 -15 -30 0 -20 -5 -30 -15 -30 -8 0 -15 -7 -15 -15
0 -8 -7 -15 -15 -15 -9 0 -15 -9 -15 -25 0 -14 -4 -25 -10 -25 -5 0 -10 -7
-10 -15 0 -8 -7 -15 -15 -15 -9 0 -15 -9 -15 -25 0 -16 -6 -25 -15 -25 -8 0
-15 -7 -15 -15 0 -8 -4 -15 -10 -15 -5 0 -10 -7 -10 -15 0 -8 -7 -15 -15 -15
-9 0 -15 -9 -15 -25 0 -16 -6 -25 -15 -25 -8 0 -15 -7 -15 -15 0 -8 -7 -15
-15 -15 -9 0 -15 -10 -15 -26 0 -26 -20 -54 -39 -54 -6 0 -11 -13 -11 -30 0
-20 -5 -30 -15 -30 -8 0 -15 -7 -15 -15 0 -8 -7 -15 -15 -15 -9 0 -15 -9 -15
-25 0 -14 -4 -25 -10 -25 -5 0 -10 -13 -10 -30 0 -20 -5 -30 -15 -30 -8 0 -15
-4 -15 -10 0 -5 -7 -10 -15 -10 -10 0 -15 -10 -15 -30 0 -20 -5 -30 -15 -30
-8 0 -15 -7 -15 -15 0 -8 -4 -15 -10 -15 -5 0 -10 -11 -10 -25 0 -16 -6 -25
-15 -25 -8 0 -15 -7 -15 -15 0 -8 -7 -15 -15 -15 -8 0 -15 -7 -15 -15 0 -8 -5
-15 -11 -15 -19 0 -39 -28 -39 -54 0 -16 -6 -26 -15 -26 -9 0 -15 -9 -15 -25
0 -16 6 -25 15 -25 8 0 15 -7 15 -15 0 -8 5 -15 10 -15 6 0 10 -13 10 -30 0
-20 5 -30 15 -30 8 0 15 -4 15 -10 0 -5 7 -10 15 -10 8 0 15 -7 15 -15 0 -8 7
-15 15 -15 8 0 15 -7 15 -15 0 -8 5 -15 10 -15 6 0 10 -11 10 -25 0 -16 6 -25
15 -25 8 0 15 -7 15 -15 0 -8 7 -15 15 -15 8 0 15 -7 15 -15 0 -8 7 -15 15
-15 9 0 15 -9 15 -25 0 -14 5 -25 10 -25 6 0 10 -13 10 -30 0 -20 5 -30 15
-30 8 0 15 -4 15 -10 0 -5 7 -10 15 -10 8 0 15 -7 15 -15 0 -8 7 -15 15 -15 8
0 15 -7 15 -15 0 -8 5 -15 10 -15 6 0 10 -7 10 -15 0 -8 7 -15 15 -15 9 0 15
-9 15 -25 0 -16 6 -25 15 -25 8 0 15 -7 15 -15 0 -8 7 -15 15 -15 8 0 15 -7
15 -15 0 -8 5 -15 10 -15 6 0 10 -11 10 -25 0 -16 6 -25 15 -25 8 0 15 -7 15
-15 0 -8 7 -15 15 -15 8 0 15 -7 15 -15 0 -8 5 -15 10 -15 6 0 10 -11 10 -25
0 -16 6 -25 15 -25 8 0 15 -7 15 -15 0 -8 7 -15 15 -15 8 0 15 -7 15 -15 0 -8
5 -15 11 -15 19 0 39 -28 39 -54 0 -25 3 -26 55 -26 l55 0 0 55 c0 42 3 55 15
55 13 0 15 21 15 125 0 104 2 125 15 125 12 0 15 16 15 80 0 64 3 80 15 80 12
0 15 14 15 70 0 40 4 70 10 70 6 0 10 25 10 55 0 42 3 55 15 55 12 0 15 14 15
70 0 56 3 70 15 70 12 0 15 13 15 55 0 42 3 55 15 55 12 0 15 13 15 55 0 30 5
55 10 55 6 0 10 18 10 40 0 29 4 40 15 40 12 0 15 13 15 55 0 42 3 55 15 55
11 0 15 11 15 40 0 29 4 40 15 40 12 0 15 13 15 55 0 30 5 55 10 55 6 0 10 18
10 40 0 29 4 40 15 40 10 0 15 10 15 30 0 20 5 30 15 30 11 0 15 11 15 40 0
22 5 40 10 40 6 0 10 18 10 40 0 29 4 40 15 40 11 0 15 12 15 45 0 33 4 45 15
45 11 0 15 11 15 40 0 29 4 40 15 40 9 0 15 9 15 25 0 14 5 25 10 25 6 0 10
20 10 45 0 33 4 45 15 45 11 0 15 11 15 40 0 29 4 40 15 40 9 0 15 9 15 25 0
16 6 25 15 25 11 0 15 12 15 45 0 25 5 45 10 45 6 0 10 18 10 40 0 29 4 40 15
40 9 0 15 9 15 25 0 16 6 25 15 25 10 0 15 10 15 30 0 20 5 30 15 30 9 0 15 9
15 25 0 14 5 25 10 25 6 0 10 14 10 30 0 20 5 30 15 30 9 0 15 9 15 25 0 16 6
25 15 25 10 0 15 10 15 30 0 20 5 30 15 30 9 0 15 9 15 25 0 14 5 25 10 25 6
0 10 14 10 30 0 20 5 30 15 30 8 0 15 7 15 15 0 8 7 15 15 15 9 0 15 9 15 25
0 14 5 25 10 25 6 0 10 14 10 30 0 20 5 30 15 30 8 0 15 5 15 10 0 6 43 10
110 10 91 0 110 3 110 15 0 10 10 15 30 15 20 0 30 5 30 15 0 9 9 15 25 15 14
0 25 5 25 10 0 6 14 10 30 10 20 0 30 5 30 15 0 8 5 15 10 15 6 0 10 7 10 15
0 8 7 15 15 15 8 0 15 7 15 15 0 8 7 15 15 15 8 0 15 5 15 10 0 6 7 10 15 10
10 0 15 10 15 30 0 17 5 30 10 30 6 0 10 11 10 25 0 16 6 25 15 25 10 0 15 10
15 30 0 20 5 30 15 30 13 0 15 23 15 150 0 127 -2 150 -15 150 -10 0 -15 10
-15 30 0 20 -5 30 -15 30 -9 0 -15 9 -15 25 0 14 -4 25 -10 25 -5 0 -10 7 -10
15 0 8 -7 15 -15 15 -9 0 -15 9 -15 25 0 21 -5 25 -30 25 -20 0 -30 5 -30 15
0 8 -4 15 -10 15 -5 0 -10 7 -10 15 0 10 -10 15 -30 15 -20 0 -30 5 -30 15 0
9 -9 15 -25 15 -14 0 -25 5 -25 10 0 6 -20 10 -45 10 -33 0 -45 4 -45 15 0 12
-19 15 -110 15 -91 0 -110 -3 -110 -15z"/>
<path d="M4380 3945 c0 -8 -7 -15 -15 -15 -8 0 -15 -7 -15 -15 0 -8 -7 -15
-15 -15 -8 0 -15 -5 -15 -11 0 -14 -25 -39 -39 -39 -6 0 -11 -7 -11 -15 0 -8
-7 -15 -15 -15 -8 0 -15 -7 -15 -15 0 -8 -7 -15 -15 -15 -8 0 -15 -7 -15 -15
0 -8 -4 -15 -10 -15 -5 0 -10 -11 -10 -25 0 -16 -6 -25 -15 -25 -11 0 -15 -11
-15 -40 0 -29 4 -40 15 -40 8 0 15 -7 15 -15 0 -8 5 -15 10 -15 6 0 10 -7 10
-15 0 -8 7 -15 15 -15 9 0 15 -9 15 -25 0 -16 6 -25 15 -25 8 0 15 -7 15 -15
0 -8 7 -15 15 -15 8 0 15 -7 15 -15 0 -8 5 -15 10 -15 6 0 10 -7 10 -15 0 -8
7 -15 15 -15 9 0 15 -9 15 -25 0 -16 6 -25 15 -25 8 0 15 -7 15 -15 0 -8 5
-15 10 -15 6 0 10 -7 10 -15 0 -8 7 -15 15 -15 8 0 15 -4 15 -10 0 -5 7 -10
15 -10 8 0 15 -7 15 -15 0 -8 7 -15 15 -15 8 0 15 -7 15 -15 0 -8 5 -15 10
-15 6 0 10 -11 10 -25 0 -16 6 -25 15 -25 8 0 15 -7 15 -15 0 -8 7 -15 15 -15
8 0 15 -7 15 -15 0 -8 7 -15 15 -15 8 0 15 -7 15 -15 0 -8 5 -15 10 -15 6 0
10 -11 10 -25 0 -16 6 -25 15 -25 8 0 15 -7 15 -15 0 -8 7 -15 15 -15 9 0 15
-9 15 -25 0 -16 6 -25 15 -25 8 0 15 -7 15 -15 0 -8 5 -15 10 -15 6 0 10 -7
10 -15 0 -8 7 -15 15 -15 8 0 15 -7 15 -15 0 -8 7 -15 15 -15 9 0 15 -9 15
-25 0 -16 6 -25 15 -25 8 0 15 -7 15 -15 0 -8 5 -15 10 -15 6 0 10 -7 10 -15
0 -8 7 -15 15 -15 8 0 15 -4 15 -10 0 -5 7 -10 15 -10 8 0 15 -7 15 -15 0 -8
7 -15 15 -15 8 0 15 -7 15 -15 0 -8 5 -15 10 -15 6 0 10 -7 10 -15 0 -8 7 -15
15 -15 9 0 15 -9 15 -25 0 -16 6 -25 15 -25 8 0 15 -7 15 -15 0 -8 5 -15 10
-15 6 0 10 -7 10 -15 0 -8 7 -15 15 -15 8 0 15 -4 15 -10 0 -5 7 -10 15 -10
10 0 15 -10 15 -30 0 -20 5 -30 15 -30 8 0 15 -5 15 -11 0 -14 25 -39 39 -39
6 0 11 -7 11 -15 0 -8 7 -15 15 -15 10 0 15 -10 15 -30 0 -20 5 -30 15 -30 9
0 15 -9 15 -25 0 -14 5 -25 10 -25 6 0 10 -7 10 -15 0 -8 7 -15 15 -15 8 0 15
-7 15 -15 0 -8 7 -15 15 -15 8 0 15 -4 15 -10 0 -5 7 -10 15 -10 10 0 15 -10
15 -30 0 -25 4 -30 25 -30 21 0 25 5 25 30 0 20 5 30 15 30 8 0 15 5 15 10 0
6 7 10 15 10 10 0 15 10 15 30 0 17 5 30 10 30 6 0 10 7 10 15 0 8 7 15 15 15
9 0 15 9 15 25 0 16 6 25 15 25 8 0 15 7 15 15 0 8 5 15 10 15 6 0 10 11 10
25 0 16 6 25 15 25 10 0 15 10 15 30 0 20 -5 30 -15 30 -8 0 -15 5 -15 11 0
14 -25 39 -39 39 -6 0 -11 14 -11 30 0 20 -5 30 -15 30 -8 0 -15 5 -15 11 0 6
-6 17 -14 25 -8 8 -19 14 -25 14 -6 0 -11 7 -11 15 0 8 -7 15 -15 15 -8 0 -15
7 -15 15 0 8 -7 15 -15 15 -9 0 -15 9 -15 25 0 14 -4 25 -10 25 -5 0 -10 7
-10 15 0 8 -7 15 -15 15 -8 0 -15 7 -15 15 0 8 -7 15 -15 15 -8 0 -15 7 -15
15 0 8 -5 15 -11 15 -19 0 -39 28 -39 54 0 16 -6 26 -15 26 -9 0 -15 9 -15 25
0 16 -6 25 -15 25 -8 0 -15 7 -15 15 0 8 -7 15 -15 15 -8 0 -15 7 -15 15 0 8
-4 15 -10 15 -5 0 -10 7 -10 15 0 8 -7 15 -15 15 -9 0 -15 9 -15 25 0 16 -6
25 -15 25 -8 0 -15 7 -15 15 0 8 -7 15 -15 15 -8 0 -15 5 -15 11 0 14 -25 39
-39 39 -6 0 -11 14 -11 30 0 20 -5 30 -15 30 -8 0 -15 5 -15 11 0 14 -25 39
-39 39 -6 0 -11 7 -11 15 0 8 -7 15 -15 15 -8 0 -15 7 -15 15 0 8 -7 15 -15
15 -8 0 -15 7 -15 15 0 8 -4 15 -10 15 -5 0 -10 11 -10 25 0 16 -6 25 -15 25
-8 0 -15 7 -15 15 0 8 -7 15 -15 15 -8 0 -15 7 -15 15 0 8 -5 15 -11 15 -19 0
-39 28 -39 54 0 16 -6 26 -15 26 -8 0 -15 7 -15 15 0 8 -7 15 -15 15 -8 0 -15
5 -15 10 0 6 -7 10 -15 10 -10 0 -15 10 -15 30 0 17 -4 30 -10 30 -5 0 -10 7
-10 15 0 8 -7 15 -15 15 -8 0 -15 5 -15 10 0 6 -7 10 -15 10 -10 0 -15 10 -15
30 0 20 -5 30 -15 30 -8 0 -15 5 -15 11 0 6 -6 17 -14 25 -8 8 -19 14 -25 14
-6 0 -11 7 -11 15 0 8 -7 15 -15 15 -8 0 -15 7 -15 15 0 8 -7 15 -15 15 -8 0
-15 7 -15 15 0 8 -4 15 -10 15 -5 0 -10 -7 -10 -15z"/>
<path d="M3910 3310 c0 -5 -7 -10 -15 -10 -8 0 -15 -7 -15 -15 0 -8 -4 -15
-10 -15 -5 0 -10 -7 -10 -15 0 -8 -7 -15 -15 -15 -8 0 -15 -7 -15 -15 0 -8 -5
-15 -11 -15 -14 0 -39 -25 -39 -39 0 -6 -7 -11 -15 -11 -10 0 -15 -10 -15 -30
0 -20 -5 -30 -15 -30 -8 0 -15 -4 -15 -10 0 -5 -7 -10 -15 -10 -8 0 -15 -7
-15 -15 0 -8 -4 -15 -10 -15 -5 0 -10 -7 -10 -15 0 -8 -7 -15 -15 -15 -9 0
-15 -9 -15 -25 0 -16 -6 -25 -15 -25 -8 0 -15 -7 -15 -15 0 -8 -7 -15 -15 -15
-8 0 -15 -7 -15 -15 0 -8 -4 -15 -10 -15 -5 0 -10 -11 -10 -25 0 -16 -6 -25
-15 -25 -8 0 -15 -7 -15 -15 0 -8 -7 -15 -15 -15 -8 0 -15 -7 -15 -15 0 -8 -7
-15 -15 -15 -9 0 -15 -9 -15 -25 0 -14 -4 -25 -10 -25 -5 0 -10 -7 -10 -15 0
-8 -7 -15 -15 -15 -8 0 -15 -7 -15 -15 0 -8 -7 -15 -15 -15 -8 0 -15 -7 -15
-15 0 -8 -5 -15 -11 -15 -19 0 -39 -28 -39 -54 0 -16 -6 -26 -15 -26 -8 0 -15
-7 -15 -15 0 -8 -7 -15 -15 -15 -8 0 -15 -4 -15 -10 0 -5 -7 -10 -15 -10 -8 0
-15 -7 -15 -15 0 -8 -4 -15 -10 -15 -5 0 -10 -13 -10 -30 0 -20 -5 -30 -15
-30 -8 0 -15 -4 -15 -10 0 -5 -7 -10 -15 -10 -8 0 -15 -7 -15 -15 0 -8 -4 -15
-10 -15 -5 0 -10 -7 -10 -15 0 -8 -7 -15 -15 -15 -9 0 -15 -9 -15 -25 0 -16
-6 -25 -15 -25 -8 0 -15 -7 -15 -15 0 -8 -7 -15 -15 -15 -8 0 -15 -7 -15 -15
0 -8 -4 -15 -10 -15 -5 0 -10 -11 -10 -25 0 -16 -6 -25 -15 -25 -8 0 -15 -7
-15 -15 0 -8 -7 -15 -15 -15 -8 0 -15 -7 -15 -15 0 -8 -7 -15 -15 -15 -8 0
-15 -7 -15 -15 0 -8 -4 -15 -10 -15 -5 0 -10 -11 -10 -25 0 -16 -6 -25 -15
-25 -8 0 -15 -7 -15 -15 0 -8 -7 -15 -15 -15 -8 0 -15 -7 -15 -15 0 -8 -7 -15
-15 -15 -9 0 -15 -9 -15 -25 0 -14 -4 -25 -10 -25 -5 0 -10 -7 -10 -15 0 -8
-7 -15 -15 -15 -8 0 -15 -7 -15 -15 0 -8 -7 -15 -15 -15 -8 0 -15 -4 -15 -10
0 -5 -7 -10 -15 -10 -8 0 -15 -7 -15 -15 0 -8 -4 -15 -10 -15 -5 0 -10 -13
-10 -30 0 -20 -5 -30 -15 -30 -8 0 -15 -4 -15 -10 0 -5 -7 -10 -15 -10 -8 0
-15 -7 -15 -15 0 -8 -4 -15 -10 -15 -5 0 -10 -7 -10 -15 0 -8 -7 -15 -15 -15
-9 0 -15 -9 -15 -25 0 -16 -6 -25 -15 -25 -8 0 -15 -7 -15 -15 0 -8 -7 -15
-15 -15 -8 0 -15 -5 -15 -11 0 -14 -25 -39 -39 -39 -6 0 -11 -7 -11 -15 0 -8
-7 -15 -15 -15 -8 0 -15 -7 -15 -15 0 -8 -7 -15 -15 -15 -9 0 -15 -9 -15 -25
0 -14 -4 -25 -10 -25 -5 0 -10 -7 -10 -15 0 -8 -7 -15 -15 -15 -8 0 -15 -7
-15 -15 0 -8 -7 -15 -15 -15 -9 0 -15 -9 -15 -25 0 -16 -6 -25 -15 -25 -10 0
-15 -10 -15 -30 0 -16 -4 -30 -10 -30 -5 0 -10 -7 -10 -15 0 -8 -7 -15 -15
-15 -8 0 -15 -4 -15 -10 0 -5 -7 -10 -15 -10 -10 0 -15 -10 -15 -30 0 -20 -5
-30 -15 -30 -8 0 -15 -5 -15 -11 0 -14 -25 -39 -39 -39 -6 0 -11 -13 -11 -30
l0 -30 520 0 c456 0 520 2 520 15 0 8 7 15 15 15 8 0 15 5 15 11 0 14 25 39
39 39 6 0 11 7 11 15 0 8 7 15 15 15 10 0 15 10 15 30 0 17 5 30 11 30 14 0
39 25 39 39 0 6 7 11 15 11 10 0 15 10 15 30 0 20 5 30 15 30 8 0 15 5 15 10
0 6 7 10 15 10 8 0 15 7 15 15 0 8 5 15 10 15 6 0 10 14 10 30 0 20 5 30 15
30 9 0 15 9 15 25 0 16 6 25 15 25 8 0 15 7 15 15 0 8 7 15 15 15 8 0 15 5 15
11 0 14 25 39 39 39 6 0 11 7 11 15 0 8 7 15 15 15 11 0 15 11 15 40 0 29 -4
40 -15 40 -8 0 -15 7 -15 15 0 8 -7 15 -15 15 -9 0 -15 9 -15 25 0 14 -4 25
-10 25 -5 0 -10 7 -10 15 0 8 -7 15 -15 15 -10 0 -15 10 -15 30 0 20 -5 30
-15 30 -12 0 -15 13 -15 55 0 42 -3 55 -15 55 -12 0 -15 16 -15 80 0 64 3 80
15 80 11 0 15 11 15 40 0 29 4 40 15 40 10 0 15 10 15 30 0 20 5 30 15 30 8 0
15 5 15 11 0 14 25 39 39 39 6 0 11 7 11 15 0 8 7 15 15 15 8 0 15 7 15 15 0
8 7 15 15 15 8 0 15 7 15 15 0 9 9 15 25 15 14 0 25 5 25 10 0 6 14 10 30 10
20 0 30 5 30 15 0 11 12 15 50 15 38 0 50 4 50 15 0 12 13 15 55 15 42 0 55
-3 55 -15 0 -11 12 -15 45 -15 33 0 45 -4 45 -15 0 -11 11 -15 40 -15 22 0 40
-4 40 -10 0 -5 7 -10 15 -10 8 0 15 -7 15 -15 0 -8 5 -15 10 -15 6 0 10 -7 10
-15 0 -8 7 -15 15 -15 8 0 15 -7 15 -15 0 -8 7 -15 15 -15 8 0 15 -4 15 -10 0
-5 7 -10 15 -10 8 0 15 -7 15 -15 0 -8 5 -15 10 -15 6 0 10 -13 10 -30 0 -20
5 -30 15 -30 11 0 15 -11 15 -40 0 -29 4 -40 15 -40 12 0 15 -19 15 -110 0
-91 -3 -110 -15 -110 -11 0 -15 -11 -15 -40 0 -29 -4 -40 -15 -40 -8 0 -15 -7
-15 -15 0 -8 -4 -15 -10 -15 -5 0 -10 -11 -10 -25 0 -16 -6 -25 -15 -25 -8 0
-15 -7 -15 -15 0 -8 -7 -15 -15 -15 -8 0 -15 -7 -15 -15 0 -8 -7 -15 -15 -15
-11 0 -15 -11 -15 -40 0 -29 4 -40 15 -40 8 0 15 -7 15 -15 0 -8 7 -15 15 -15
8 0 15 -4 15 -10 0 -5 7 -10 15 -10 8 0 15 -7 15 -15 0 -8 5 -15 10 -15 6 0
10 -7 10 -15 0 -8 7 -15 15 -15 9 0 15 -9 15 -25 0 -16 6 -25 15 -25 8 0 15
-7 15 -15 0 -8 5 -15 10 -15 6 0 10 -7 10 -15 0 -8 7 -15 15 -15 9 0 15 -9 15
-25 0 -16 6 -25 15 -25 8 0 15 -7 15 -15 0 -8 7 -15 15 -15 8 0 15 -7 15 -15
0 -8 5 -15 10 -15 6 0 10 -7 10 -15 0 -8 7 -15 15 -15 9 0 15 -9 15 -25 0 -16
6 -25 15 -25 8 0 15 -7 15 -15 0 -8 7 -15 15 -15 8 0 15 -7 15 -15 0 -8 5 -15
10 -15 6 0 10 -11 10 -25 0 -16 6 -25 15 -25 8 0 15 -7 15 -15 0 -13 66 -15
535 -15 l535 0 0 30 c0 20 -5 30 -15 30 -8 0 -15 5 -15 10 0 6 -7 10 -15 10
-10 0 -15 10 -15 30 0 17 -4 30 -10 30 -5 0 -10 7 -10 15 0 8 -7 15 -15 15 -8
0 -15 5 -15 10 0 6 -7 10 -15 10 -10 0 -15 10 -15 30 0 20 -5 30 -15 30 -8 0
-15 5 -15 11 0 14 -25 39 -39 39 -6 0 -11 7 -11 15 0 8 -7 15 -15 15 -9 0 -15
10 -15 26 0 26 -20 54 -39 54 -6 0 -11 7 -11 15 0 8 -7 15 -15 15 -8 0 -15 7
-15 15 0 8 -7 15 -15 15 -8 0 -15 7 -15 15 0 8 -4 15 -10 15 -5 0 -10 11 -10
25 0 16 -6 25 -15 25 -8 0 -15 7 -15 15 0 8 -7 15 -15 15 -8 0 -15 5 -15 10 0
6 -7 10 -15 10 -8 0 -15 7 -15 15 0 8 -4 15 -10 15 -5 0 -10 14 -10 30 0 20
-5 30 -15 30 -8 0 -15 5 -15 10 0 6 -7 10 -15 10 -10 0 -15 10 -15 30 0 20 -5
30 -15 30 -8 0 -15 5 -15 11 0 14 -25 39 -39 39 -6 0 -11 14 -11 30 0 20 -5
30 -15 30 -8 0 -15 7 -15 15 0 8 -5 15 -11 15 -14 0 -39 25 -39 39 0 6 -7 11
-15 11 -10 0 -15 10 -15 30 0 17 -5 30 -11 30 -14 0 -39 25 -39 39 0 6 -7 11
-15 11 -8 0 -15 7 -15 15 0 8 -7 15 -15 15 -8 0 -15 7 -15 15 0 8 -5 15 -11
15 -14 0 -39 25 -39 39 0 6 -7 11 -15 11 -10 0 -15 10 -15 30 0 20 -5 30 -15
30 -8 0 -15 5 -15 10 0 6 -7 10 -15 10 -8 0 -15 7 -15 15 0 8 -4 15 -10 15 -5
0 -10 7 -10 15 0 8 -7 15 -15 15 -9 0 -15 9 -15 25 0 16 -6 25 -15 25 -8 0
-15 7 -15 15 0 8 -7 15 -15 15 -9 0 -15 10 -15 26 0 26 -20 54 -39 54 -6 0
-11 7 -11 15 0 8 -7 15 -15 15 -10 0 -15 10 -15 30 0 17 -5 30 -11 30 -6 0
-17 6 -25 14 -8 8 -14 19 -14 25 0 6 -7 11 -15 11 -8 0 -15 7 -15 15 0 8 -7
15 -15 15 -8 0 -15 7 -15 15 0 8 -5 15 -11 15 -6 0 -17 6 -25 14 -8 8 -14 19
-14 25 0 6 -7 11 -15 11 -10 0 -15 10 -15 30 0 17 -5 30 -11 30 -6 0 -17 6
-25 14 -8 8 -14 19 -14 25 0 6 -7 11 -15 11 -8 0 -15 7 -15 15 0 8 -7 15 -15
15 -9 0 -15 9 -15 25 0 16 -6 25 -15 25 -8 0 -15 7 -15 15 0 8 -4 15 -10 15
-5 0 -10 7 -10 15 0 8 -7 15 -15 15 -8 0 -15 7 -15 15 0 8 -7 15 -15 15 -9 0
-15 9 -15 25 0 16 -6 25 -15 25 -8 0 -15 7 -15 15 0 8 -4 15 -10 15 -5 0 -10
7 -10 15 0 8 -7 15 -15 15 -9 0 -15 9 -15 25 0 16 -6 25 -15 25 -8 0 -15 7
-15 15 0 8 -7 15 -15 15 -8 0 -15 5 -15 11 0 19 -28 39 -54 39 -14 0 -26 -4
-26 -10z"/>
<path d="M1610 275 l0 -195 905 0 905 0 0 40 c0 29 -4 40 -15 40 -13 0 -15 24
-15 155 l0 155 -890 0 -890 0 0 -195z"/>
<path d="M4820 455 c0 -8 -7 -15 -15 -15 -8 0 -15 -7 -15 -15 0 -10 -10 -15
-30 -15 -16 0 -30 -5 -30 -11 0 -14 -25 -39 -39 -39 -6 0 -11 -7 -11 -15 0 -8
-7 -15 -15 -15 -10 0 -15 -10 -15 -30 0 -16 -5 -30 -11 -30 -14 0 -39 -25 -39
-39 0 -6 -7 -11 -15 -11 -8 0 -15 -7 -15 -15 0 -8 -7 -15 -15 -15 -8 0 -15 -7
-15 -15 0 -8 -5 -15 -11 -15 -19 0 -39 -28 -39 -54 l0 -26 890 0 890 0 0 195
0 195 -725 0 c-638 0 -725 -2 -725 -15z"/>
</g>
</svg>
