<?xml version="1.0" standalone="no"?>
<!DOCTYPE svg PUBLIC "-//W3C//DTD SVG 20010904//EN"
 "http://www.w3.org/TR/2001/REC-SVG-20010904/DTD/svg10.dtd">
<svg version="1.0" xmlns="http://www.w3.org/2000/svg"
 width="288.000000pt" height="290.000000pt" viewBox="0 0 288.000000 290.000000"
 preserveAspectRatio="xMidYMid meet">

<g transform="translate(0.000000,290.000000) scale(0.100000,-0.100000)"
fill="#000000" stroke="none">
<path d="M1235 2815 c-103 -20 -208 -49 -276 -78 -337 -142 -572 -358 -723
-665 -109 -220 -153 -426 -143 -662 13 -283 116 -562 288 -780 204 -259 518
-445 834 -495 208 -33 478 -15 655 45 362 121 674 404 824 745 77 178 110 341
110 550 0 280 -78 529 -237 764 -65 95 -209 246 -304 318 -135 101 -335 194
-515 239 -133 33 -387 42 -513 19z m520 -200 c201 -60 392 -173 528 -314 151
-156 226 -273 282 -440 51 -154 69 -276 62 -445 -4 -123 -9 -157 -41 -266 -64
-218 -137 -346 -296 -513 l-45 -48 -5 753 -5 753 -394 -393 -394 -392 -393
396 -394 397 0 -759 -1 -759 -68 72 c-153 161 -269 390 -306 601 -18 100 -19
288 -4 399 43 313 260 642 534 809 150 92 220 123 360 158 95 23 109 24 305
21 166 -3 194 -6 275 -30z m-302 -1574 c4 8 534 544 565 572 l32 29 0 -595 0
-596 -72 -39 c-62 -34 -162 -72 -190 -72 -4 0 -8 170 -8 377 l0 378 -95 -95
-95 -94 -2 -306 -3 -305 -137 -3 -138 -3 0 312 0 311 -92 88 -93 88 -3 -375
-2 -375 -33 7 c-45 10 -142 50 -193 80 l-44 26 0 597 1 597 300 -304 c165
-167 301 -302 302 -300z"/>
<path d="M1353 2209 c-33 -16 -48 -33 -69 -75 -67 -137 19 -283 167 -284 170
-1 254 220 127 337 -51 48 -153 58 -225 22z"/>
</g>
</svg>
